<svg id="dog-icon-svg" viewBox="0 0 100 100" width="100%" height="100%" class="max-w-[400px] drop-shadow-2xl transition-all duration-500" xmlns="http://www.w3.org/2000/svg"><defs><linearGradient id="bg-gradient-29323c-485563" x1="0%" y1="0%" x2="100%" y2="100%"><stop offset="0%" stop-color="#29323c"/><stop offset="100%" stop-color="#485563"/></linearGradient><filter id="drop-shadow" x="-20%" y="-20%" width="140%" height="140%"><feDropShadow dx="0" dy="2" stdDeviation="3" flood-color="#000000" flood-opacity="0.15"/></filter></defs><rect width="100" height="100" rx="22.5" fill="url(#bg-gradient-29323c-485563)"/><g filter="url(#drop-shadow)"><path d="M 35 28 Q 15 5 10 12 Q 15 35 22 45 Z" fill="#D47A38"/><path d="M 33 30 Q 18 12 14 16 Q 18 32 24 40 Z" fill="#EAA879"/><path d="M 65 28 Q 85 5 90 12 Q 85 35 78 45 Z" fill="#D47A38"/><path d="M 67 30 Q 82 12 86 16 Q 82 32 76 40 Z" fill="#EAA879"/><path d="M 22 45 C 22 25, 35 25, 50 25 C 65 25, 78 25, 78 45 C 82 70, 68 88, 50 88 C 32 88, 18 70, 22 45 Z" fill="#D47A38"/><path d="M 45 25 L 55 25 C 55 35, 58 45, 64 55 C 70 65, 65 88, 50 88 C 35 88, 30 65, 36 55 C 42 45, 45 35, 45 25 Z" fill="#F7F4F0"/><path d="M 36 55 C 30 65, 35 88, 50 88 C 45 88, 36 75, 36 55 Z" fill="#E8E0D5" opacity="0.7"/><path d="M 64 55 C 70 65, 65 88, 50 88 C 55 88, 64 75, 64 55 Z" fill="#E8E0D5" opacity="0.7"/><ellipse cx="50" cy="32" rx="2.5" ry="3.5" fill="#D47A38" opacity="0.8"/><ellipse cx="36" cy="50" rx="4" ry="5" fill="#291C14"/><ellipse cx="64" cy="50" rx="4" ry="5" fill="#291C14"/><circle cx="34.5" cy="48" r="1.5" fill="#FFFFFF"/><circle cx="62.5" cy="48" r="1.5" fill="#FFFFFF"/><path d="M 44 68 C 44 65, 56 65, 56 68 C 57 72, 54 75, 50 75 C 46 75, 43 72, 44 68 Z" fill="#291C14"/><ellipse cx="50" cy="67" rx="2.5" ry="1" fill="#7A655A"/><line x1="50" y1="75" x2="50" y2="79" stroke="#291C14" stroke-width="1.5"/><path d="M 42 78 Q 50 82 58 78" fill="none" stroke="#291C14" stroke-width="1.5" stroke-linecap="round"/></g></svg>